<mxfile host="app.diagrams.net" agent="Mozilla/5.0 (Windows NT 10.0; Win64; x64) AppleWebKit/537.36 (KHTML, like Gecko) Chrome/129.0.0.0 Safari/537.36 Edg/129.0.0.0" version="24.7.16">
  <diagram name="Page-1" id="rYuYCStadhXCLP9SaO74">
    <mxGraphModel dx="1426" dy="1881" grid="1" gridSize="10" guides="1" tooltips="1" connect="1" arrows="1" fold="1" page="1" pageScale="1" pageWidth="850" pageHeight="1100" math="0" shadow="0">
      <root>
        <mxCell id="0" />
        <mxCell id="1" parent="0" />
        <mxCell id="DvbZTr1sbasB1ZSRingH-4" value="Settings" style="edgeStyle=orthogonalEdgeStyle;rounded=0;orthogonalLoop=1;jettySize=auto;html=1;entryX=1;entryY=0.5;entryDx=0;entryDy=0;exitX=0.25;exitY=0;exitDx=0;exitDy=0;" parent="1" source="DvbZTr1sbasB1ZSRingH-1" target="DvbZTr1sbasB1ZSRingH-3" edge="1">
          <mxGeometry x="-0.2727" relative="1" as="geometry">
            <mxPoint as="offset" />
          </mxGeometry>
        </mxCell>
        <mxCell id="DvbZTr1sbasB1ZSRingH-7" value="" style="edgeStyle=orthogonalEdgeStyle;rounded=0;orthogonalLoop=1;jettySize=auto;html=1;" parent="1" source="DvbZTr1sbasB1ZSRingH-1" target="DvbZTr1sbasB1ZSRingH-6" edge="1">
          <mxGeometry relative="1" as="geometry" />
        </mxCell>
        <mxCell id="A-0uA8nPq4QZAQ91zx8X-1" value="New Game" style="edgeLabel;html=1;align=center;verticalAlign=middle;resizable=0;points=[];" parent="DvbZTr1sbasB1ZSRingH-7" vertex="1" connectable="0">
          <mxGeometry x="-0.055" y="3" relative="1" as="geometry">
            <mxPoint as="offset" />
          </mxGeometry>
        </mxCell>
        <mxCell id="DvbZTr1sbasB1ZSRingH-1" value="Title Screen" style="rounded=1;whiteSpace=wrap;html=1;" parent="1" vertex="1">
          <mxGeometry x="150" y="-20" width="120" height="60" as="geometry" />
        </mxCell>
        <mxCell id="DvbZTr1sbasB1ZSRingH-5" style="edgeStyle=orthogonalEdgeStyle;rounded=0;orthogonalLoop=1;jettySize=auto;html=1;exitX=0;exitY=0.5;exitDx=0;exitDy=0;entryX=0;entryY=0.25;entryDx=0;entryDy=0;" parent="1" source="DvbZTr1sbasB1ZSRingH-3" target="DvbZTr1sbasB1ZSRingH-1" edge="1">
          <mxGeometry relative="1" as="geometry" />
        </mxCell>
        <mxCell id="DvbZTr1sbasB1ZSRingH-10" value="Save/ESC" style="edgeLabel;html=1;align=center;verticalAlign=middle;resizable=0;points=[];" parent="DvbZTr1sbasB1ZSRingH-5" vertex="1" connectable="0">
          <mxGeometry x="0.1271" y="-1" relative="1" as="geometry">
            <mxPoint as="offset" />
          </mxGeometry>
        </mxCell>
        <mxCell id="DvbZTr1sbasB1ZSRingH-3" value="Settings (Graphics, Language, Difficulties)" style="rounded=1;whiteSpace=wrap;html=1;" parent="1" vertex="1">
          <mxGeometry x="30" y="-130" width="120" height="60" as="geometry" />
        </mxCell>
        <mxCell id="sWjKvFemMA6WNyiepZkH-3" style="edgeStyle=orthogonalEdgeStyle;rounded=0;orthogonalLoop=1;jettySize=auto;html=1;exitX=0.5;exitY=1;exitDx=0;exitDy=0;entryX=0.5;entryY=0;entryDx=0;entryDy=0;" parent="1" source="DvbZTr1sbasB1ZSRingH-6" target="n2BwdD1MH2NfNUdh2FyN-14" edge="1">
          <mxGeometry relative="1" as="geometry">
            <mxPoint x="210" y="240" as="targetPoint" />
          </mxGeometry>
        </mxCell>
        <mxCell id="A-0uA8nPq4QZAQ91zx8X-3" value="Game Start" style="edgeLabel;html=1;align=center;verticalAlign=middle;resizable=0;points=[];" parent="sWjKvFemMA6WNyiepZkH-3" vertex="1" connectable="0">
          <mxGeometry x="-0.168" y="-3" relative="1" as="geometry">
            <mxPoint as="offset" />
          </mxGeometry>
        </mxCell>
        <mxCell id="A-0uA8nPq4QZAQ91zx8X-22" style="edgeStyle=orthogonalEdgeStyle;rounded=0;orthogonalLoop=1;jettySize=auto;html=1;entryX=0;entryY=0.75;entryDx=0;entryDy=0;" parent="1" source="DvbZTr1sbasB1ZSRingH-6" target="DvbZTr1sbasB1ZSRingH-1" edge="1">
          <mxGeometry relative="1" as="geometry">
            <Array as="points">
              <mxPoint x="130" y="155" />
              <mxPoint x="130" y="25" />
            </Array>
          </mxGeometry>
        </mxCell>
        <mxCell id="A-0uA8nPq4QZAQ91zx8X-23" value="ESC" style="edgeLabel;html=1;align=center;verticalAlign=middle;resizable=0;points=[];" parent="A-0uA8nPq4QZAQ91zx8X-22" vertex="1" connectable="0">
          <mxGeometry x="0.0428" y="1" relative="1" as="geometry">
            <mxPoint as="offset" />
          </mxGeometry>
        </mxCell>
        <mxCell id="DvbZTr1sbasB1ZSRingH-6" value="Level Selection&lt;br&gt;(unlock new level by completing current level)" style="rounded=1;whiteSpace=wrap;html=1;" parent="1" vertex="1">
          <mxGeometry x="150" y="120" width="120" height="70" as="geometry" />
        </mxCell>
        <mxCell id="A-0uA8nPq4QZAQ91zx8X-6" value="" style="edgeStyle=orthogonalEdgeStyle;rounded=0;orthogonalLoop=1;jettySize=auto;html=1;" parent="1" target="A-0uA8nPq4QZAQ91zx8X-5" edge="1">
          <mxGeometry relative="1" as="geometry">
            <mxPoint x="270" y="335" as="sourcePoint" />
          </mxGeometry>
        </mxCell>
        <mxCell id="A-0uA8nPq4QZAQ91zx8X-45" value="Game Start" style="edgeLabel;html=1;align=center;verticalAlign=middle;resizable=0;points=[];" parent="A-0uA8nPq4QZAQ91zx8X-6" vertex="1" connectable="0">
          <mxGeometry x="-0.1417" y="-1" relative="1" as="geometry">
            <mxPoint as="offset" />
          </mxGeometry>
        </mxCell>
        <mxCell id="nZrOT-bJCdYsob9L0fT7-1" style="edgeStyle=orthogonalEdgeStyle;rounded=0;orthogonalLoop=1;jettySize=auto;html=1;exitX=0.25;exitY=0;exitDx=0;exitDy=0;entryX=0.5;entryY=1;entryDx=0;entryDy=0;" parent="1" source="A-0uA8nPq4QZAQ91zx8X-5" target="A-0uA8nPq4QZAQ91zx8X-40" edge="1">
          <mxGeometry relative="1" as="geometry">
            <Array as="points" />
          </mxGeometry>
        </mxCell>
        <mxCell id="nZrOT-bJCdYsob9L0fT7-3" value="Escape" style="edgeLabel;html=1;align=center;verticalAlign=middle;resizable=0;points=[];" parent="nZrOT-bJCdYsob9L0fT7-1" vertex="1" connectable="0">
          <mxGeometry x="0.0453" y="-1" relative="1" as="geometry">
            <mxPoint as="offset" />
          </mxGeometry>
        </mxCell>
        <mxCell id="nZrOT-bJCdYsob9L0fT7-21" value="Encounter" style="edgeStyle=orthogonalEdgeStyle;rounded=0;orthogonalLoop=1;jettySize=auto;html=1;exitX=1;exitY=0.5;exitDx=0;exitDy=0;entryX=0;entryY=0.5;entryDx=0;entryDy=0;" parent="1" source="A-0uA8nPq4QZAQ91zx8X-5" target="nZrOT-bJCdYsob9L0fT7-16" edge="1">
          <mxGeometry relative="1" as="geometry" />
        </mxCell>
        <mxCell id="nZrOT-bJCdYsob9L0fT7-23" value="Encounter" style="edgeStyle=orthogonalEdgeStyle;rounded=0;orthogonalLoop=1;jettySize=auto;html=1;exitX=0.75;exitY=0;exitDx=0;exitDy=0;entryX=0;entryY=0.5;entryDx=0;entryDy=0;" parent="1" source="A-0uA8nPq4QZAQ91zx8X-5" target="nZrOT-bJCdYsob9L0fT7-15" edge="1">
          <mxGeometry x="0.4717" relative="1" as="geometry">
            <mxPoint as="offset" />
          </mxGeometry>
        </mxCell>
        <mxCell id="A-0uA8nPq4QZAQ91zx8X-5" value="Explore the Map" style="whiteSpace=wrap;html=1;rounded=1;" parent="1" vertex="1">
          <mxGeometry x="410" y="305" width="120" height="60" as="geometry" />
        </mxCell>
        <mxCell id="nZrOT-bJCdYsob9L0fT7-19" style="edgeStyle=orthogonalEdgeStyle;rounded=0;orthogonalLoop=1;jettySize=auto;html=1;exitX=0;exitY=0.5;exitDx=0;exitDy=0;entryX=0.5;entryY=0;entryDx=0;entryDy=0;" parent="1" source="A-0uA8nPq4QZAQ91zx8X-9" target="A-0uA8nPq4QZAQ91zx8X-5" edge="1">
          <mxGeometry relative="1" as="geometry">
            <Array as="points">
              <mxPoint x="630" y="10" />
              <mxPoint x="630" y="90" />
              <mxPoint x="470" y="90" />
            </Array>
          </mxGeometry>
        </mxCell>
        <mxCell id="nZrOT-bJCdYsob9L0fT7-20" value="Level up / Unlock new Skills" style="edgeLabel;html=1;align=center;verticalAlign=middle;resizable=0;points=[];" parent="nZrOT-bJCdYsob9L0fT7-19" vertex="1" connectable="0">
          <mxGeometry x="-0.2575" y="-2" relative="1" as="geometry">
            <mxPoint x="-16" y="2" as="offset" />
          </mxGeometry>
        </mxCell>
        <mxCell id="A-0uA8nPq4QZAQ91zx8X-9" value="Player Get Experience" style="whiteSpace=wrap;html=1;rounded=1;" parent="1" vertex="1">
          <mxGeometry x="670" y="-20" width="120" height="60" as="geometry" />
        </mxCell>
        <mxCell id="n2BwdD1MH2NfNUdh2FyN-16" style="edgeStyle=orthogonalEdgeStyle;rounded=0;orthogonalLoop=1;jettySize=auto;html=1;exitX=0.5;exitY=0;exitDx=0;exitDy=0;entryX=0.5;entryY=1;entryDx=0;entryDy=0;" edge="1" parent="1" source="A-0uA8nPq4QZAQ91zx8X-16" target="A-0uA8nPq4QZAQ91zx8X-5">
          <mxGeometry relative="1" as="geometry" />
        </mxCell>
        <mxCell id="A-0uA8nPq4QZAQ91zx8X-16" value="Use Healing potions / collect health packs" style="whiteSpace=wrap;html=1;rounded=1;" parent="1" vertex="1">
          <mxGeometry x="410" y="510" width="120" height="60" as="geometry" />
        </mxCell>
        <mxCell id="A-0uA8nPq4QZAQ91zx8X-24" style="edgeStyle=orthogonalEdgeStyle;rounded=0;orthogonalLoop=1;jettySize=auto;html=1;entryX=0;entryY=0.5;entryDx=0;entryDy=0;exitX=0;exitY=0.5;exitDx=0;exitDy=0;" parent="1" source="A-0uA8nPq4QZAQ91zx8X-19" target="DvbZTr1sbasB1ZSRingH-1" edge="1">
          <mxGeometry relative="1" as="geometry">
            <Array as="points">
              <mxPoint x="80" y="540" />
              <mxPoint x="80" y="10" />
            </Array>
          </mxGeometry>
        </mxCell>
        <mxCell id="A-0uA8nPq4QZAQ91zx8X-25" value="Return to Title" style="edgeLabel;html=1;align=center;verticalAlign=middle;resizable=0;points=[];" parent="A-0uA8nPq4QZAQ91zx8X-24" vertex="1" connectable="0">
          <mxGeometry x="-0.6311" relative="1" as="geometry">
            <mxPoint y="-186" as="offset" />
          </mxGeometry>
        </mxCell>
        <mxCell id="A-0uA8nPq4QZAQ91zx8X-19" value="Game Over" style="whiteSpace=wrap;html=1;rounded=1;" parent="1" vertex="1">
          <mxGeometry x="150" y="510" width="120" height="60" as="geometry" />
        </mxCell>
        <mxCell id="nZrOT-bJCdYsob9L0fT7-2" style="edgeStyle=orthogonalEdgeStyle;rounded=0;orthogonalLoop=1;jettySize=auto;html=1;exitX=0;exitY=0.5;exitDx=0;exitDy=0;entryX=1;entryY=0.5;entryDx=0;entryDy=0;" parent="1" source="A-0uA8nPq4QZAQ91zx8X-40" target="DvbZTr1sbasB1ZSRingH-6" edge="1">
          <mxGeometry relative="1" as="geometry" />
        </mxCell>
        <mxCell id="nZrOT-bJCdYsob9L0fT7-4" value="Return to choose level" style="edgeLabel;html=1;align=center;verticalAlign=middle;resizable=0;points=[];" parent="nZrOT-bJCdYsob9L0fT7-2" vertex="1" connectable="0">
          <mxGeometry x="0.0689" y="-3" relative="1" as="geometry">
            <mxPoint as="offset" />
          </mxGeometry>
        </mxCell>
        <mxCell id="A-0uA8nPq4QZAQ91zx8X-40" value="Win" style="whiteSpace=wrap;html=1;rounded=1;" parent="1" vertex="1">
          <mxGeometry x="380" y="-20" width="120" height="60" as="geometry" />
        </mxCell>
        <mxCell id="nZrOT-bJCdYsob9L0fT7-24" value="Eliminated" style="edgeStyle=orthogonalEdgeStyle;rounded=0;orthogonalLoop=1;jettySize=auto;html=1;exitX=0.5;exitY=0;exitDx=0;exitDy=0;entryX=0.5;entryY=1;entryDx=0;entryDy=0;" parent="1" source="nZrOT-bJCdYsob9L0fT7-15" target="A-0uA8nPq4QZAQ91zx8X-9" edge="1">
          <mxGeometry relative="1" as="geometry" />
        </mxCell>
        <mxCell id="nZrOT-bJCdYsob9L0fT7-15" value="Enemy Unit" style="whiteSpace=wrap;html=1;rounded=1;" parent="1" vertex="1">
          <mxGeometry x="670" y="125" width="120" height="60" as="geometry" />
        </mxCell>
        <mxCell id="nZrOT-bJCdYsob9L0fT7-26" value="Occpied" style="edgeStyle=orthogonalEdgeStyle;rounded=0;orthogonalLoop=1;jettySize=auto;html=1;exitX=1;exitY=0.5;exitDx=0;exitDy=0;entryX=1;entryY=0.5;entryDx=0;entryDy=0;" parent="1" source="nZrOT-bJCdYsob9L0fT7-16" target="A-0uA8nPq4QZAQ91zx8X-9" edge="1">
          <mxGeometry relative="1" as="geometry">
            <Array as="points">
              <mxPoint x="830" y="335" />
              <mxPoint x="830" y="10" />
            </Array>
          </mxGeometry>
        </mxCell>
        <mxCell id="nZrOT-bJCdYsob9L0fT7-30" style="edgeStyle=orthogonalEdgeStyle;rounded=0;orthogonalLoop=1;jettySize=auto;html=1;exitX=0.75;exitY=1;exitDx=0;exitDy=0;entryX=0;entryY=0.5;entryDx=0;entryDy=0;" parent="1" source="n2BwdD1MH2NfNUdh2FyN-14" target="A-0uA8nPq4QZAQ91zx8X-16" edge="1">
          <mxGeometry relative="1" as="geometry">
            <Array as="points">
              <mxPoint x="240" y="420" />
              <mxPoint x="350" y="420" />
              <mxPoint x="350" y="540" />
            </Array>
          </mxGeometry>
        </mxCell>
        <mxCell id="nZrOT-bJCdYsob9L0fT7-31" value="Injured" style="edgeLabel;html=1;align=center;verticalAlign=middle;resizable=0;points=[];" parent="nZrOT-bJCdYsob9L0fT7-30" vertex="1" connectable="0">
          <mxGeometry x="-0.0188" y="4" relative="1" as="geometry">
            <mxPoint x="-4" y="26" as="offset" />
          </mxGeometry>
        </mxCell>
        <mxCell id="nZrOT-bJCdYsob9L0fT7-16" value="Defensive Tower" style="whiteSpace=wrap;html=1;rounded=1;" parent="1" vertex="1">
          <mxGeometry x="670" y="305" width="120" height="60" as="geometry" />
        </mxCell>
        <mxCell id="n2BwdD1MH2NfNUdh2FyN-15" value="Dead" style="edgeStyle=orthogonalEdgeStyle;rounded=0;orthogonalLoop=1;jettySize=auto;html=1;exitX=0.5;exitY=1;exitDx=0;exitDy=0;entryX=0.5;entryY=0;entryDx=0;entryDy=0;" edge="1" parent="1" source="n2BwdD1MH2NfNUdh2FyN-14" target="A-0uA8nPq4QZAQ91zx8X-19">
          <mxGeometry relative="1" as="geometry" />
        </mxCell>
        <mxCell id="n2BwdD1MH2NfNUdh2FyN-14" value="Player Spawn" style="whiteSpace=wrap;html=1;rounded=1;" vertex="1" parent="1">
          <mxGeometry x="150" y="305" width="120" height="60" as="geometry" />
        </mxCell>
      </root>
    </mxGraphModel>
  </diagram>
</mxfile>
